<svg xmlns="http://www.w3.org/2000/svg" height="48" viewBox="0 -960 960 960" width="48"><path d="M405.474-420H536q6.375 0 10.688-4.028 4.312-4.028 4.312-11.2t-3.963-10.972q-3.962-3.8-11.441-3.8H405.404q-7.479 0-11.442 4.028-3.962 4.028-3.962 11.2t3.962 10.972q3.963 3.8 11.512 3.8ZM405-539h257q6.375 0 10.688-4.028 4.312-4.028 4.312-11.2t-4.312-10.972Q668.375-569 662-569H405q-7.075 0-11.038 4.028-3.962 4.028-3.962 11.2t3.962 10.972Q397.925-539 405-539Zm0-119h257q6.375 0 10.688-4.028 4.312-4.028 4.312-11.2t-4.312-10.972Q668.375-688 662-688H405q-7.075 0-11.038 4.028-3.962 4.028-3.962 11.2t3.962 10.972Q397.925-658 405-658Zm-92 393q-28.138 0-47.569-19.75T246-332v-444q0-27.5 19.431-47.25T313-843h444q27.5 0 47.25 19.75T824-776v444q0 27.5-19.75 47.25T757-265H313ZM204-156q-28.137 0-47.569-19.75Q137-195.5 137-223v-462q0-6.7 5.211-11.85 5.21-5.15 12-5.15 6.789 0 12.289 5.15T172-685v462q0 12 10 22t22 10h461q7.125 0 12.562 5.228Q683-180.544 683-173.456q0 7.088-5.438 12.272Q672.125-156 665-156H204Z"/></svg>