<svg xmlns="http://www.w3.org/2000/svg" height="48" viewBox="0 -960 960 960" width="48"><path d="M480.033-108Q403-108 335.195-137.368q-67.805-29.369-117.962-79.715-50.157-50.346-79.695-118.098Q108-402.933 108-479.967q0-77.033 29.368-144.838 29.369-67.805 79.715-117.962 50.346-50.157 118.098-79.695Q402.933-852 479.967-852q77.033 0 144.838 29.368 67.805 29.369 117.962 79.715 50.157 50.346 79.695 118.098Q852-557.067 852-480.033q0 77.033-29.368 144.838-29.369 67.805-79.715 117.962-50.346 50.157-118.098 79.695Q557.067-108 480.033-108ZM438-145v-82q-36.175 0-60.087-24.262Q354-275.525 354-311.548V-354L151-557q-3 17.5-5.5 37.574-2.5 20.075-2.5 39.742Q143-352 227-256t211 111Zm291-108q21.286-22.287 37.62-48.962 16.334-26.674 27.725-55.823 11.392-29.149 17.023-60.203Q817-449.041 817-481.097q0-103.657-56.593-190.325Q703.815-758.091 606-796v19.327Q606-741 582.325-716.5T522-692h-84v85q0 18.425-12 29.713Q414-566 396.351-566H311v85h254.429q16.817 0 28.694 12.569Q606-455.862 606-439.5V-311h41.788q28.212 0 50.632 16.17Q720.84-278.661 729-253Z"/></svg>